<svg width="93" height="54" viewBox="0 0 93 54" fill="none" xmlns="http://www.w3.org/2000/svg">
<path d="M27.6168 20.2185L25.0813 16.6639C24.9073 16.4402 24.7333 16.3407 24.5593 16.3905C24.3853 16.4402 24.261 16.5893 24.2113 16.8379L21.999 25.8612L20.1346 16.8379C20.0849 16.5644 19.9109 16.3159 19.6624 16.117C19.3889 15.9182 19.1403 15.8187 18.8918 15.8187H13.9451C13.6468 15.8187 13.3734 15.9182 13.1497 16.1419C12.9011 16.3656 12.7519 16.5893 12.7022 16.8379L10.8379 25.8612L8.62558 16.8379C8.55101 16.5644 8.37701 16.3159 8.10358 16.117C7.83015 15.9182 7.55671 15.8187 7.30814 15.8187H0.745727C0.522009 15.8187 0.323161 15.8933 0.198873 16.0176C0.0745849 16.1667 0 16.3159 0 16.5148C0 16.6142 0.0248606 16.7136 0.0497182 16.813L6.53756 35.2325C6.63699 35.5059 6.83584 35.7297 7.13413 35.9285C7.43242 36.1274 7.70585 36.2268 7.95443 36.2268H13.0254C13.3237 36.2268 13.5971 36.1274 13.8457 35.9037C14.0943 35.6799 14.2434 35.4562 14.318 35.2076L16.4557 26.408L18.5935 35.2076C18.6432 35.4811 18.8172 35.7297 19.0906 35.9285C19.3641 36.1274 19.6375 36.2268 19.8861 36.2268H24.957C25.2553 36.2268 25.5287 36.1274 25.8022 35.9285C26.0756 35.7297 26.2496 35.5059 26.349 35.2325L30.3511 23.972L27.6168 20.2185Z" fill="#10133E"/>
<path d="M46.956 16.1419C46.7572 15.943 46.5086 15.8436 46.2103 15.8436H42.4071C41.7111 15.8436 41.2139 16.1667 40.9405 16.813L38.2807 23.2263L35.6458 16.7882C35.3724 16.1419 34.8752 15.8187 34.1792 15.8187H26.8214C26.6722 15.8187 26.5479 15.8685 26.4485 15.9927C26.3491 16.0922 26.2994 16.2165 26.2994 16.3905C26.2994 16.5148 26.3242 16.5893 26.3988 16.6887L28.114 19.1248L34.1792 27.6758V35.1828C34.1792 35.4811 34.2787 35.7297 34.4775 35.9285C34.6764 36.1274 34.9249 36.2268 35.2232 36.2268H41.3879C41.6862 36.2268 41.9348 36.1274 42.1337 35.9285C42.3325 35.7297 42.4319 35.4811 42.4319 35.1828V27.6758L47.2792 20.8648V16.9125C47.2543 16.5893 47.1549 16.3407 46.956 16.1419Z" fill="#10133E"/>
<path d="M68.7313 17.8322C66.8173 16.3905 64.3812 15.6448 61.4729 15.6448C59.8323 15.6448 57.6945 15.6696 55.0596 15.7193C54.0405 15.7442 53.1456 15.7691 52.3501 15.7691C51.0575 15.7939 50.0632 15.7939 49.3672 15.7939C49.0689 15.7939 48.8204 15.8934 48.6215 16.1171C48.4226 16.3408 48.3232 16.5645 48.3232 16.8379V35.1331C48.3232 35.4066 48.4226 35.6551 48.6464 35.854C48.8701 36.0777 49.1187 36.1771 49.3672 36.1771H55.5319C55.8053 36.1771 56.0539 36.0777 56.2528 35.854C56.4765 35.6303 56.5759 35.3817 56.5759 35.1331V30.2113C57.8437 30.3605 59.4594 30.4102 61.4729 30.4102C64.3812 30.4102 66.7924 29.6893 68.7313 28.2724C70.6453 26.8555 71.6148 25.1155 71.6148 23.0772C71.6148 21.0637 70.6453 19.2988 68.7313 17.8322ZM62.8898 23.9721C62.5417 24.1958 62.144 24.3201 61.6469 24.3201C60.9757 24.3201 59.9814 24.2952 58.664 24.2455C57.3217 24.1958 56.6256 24.1709 56.5262 24.1709V22.1574C56.6256 22.1574 57.2968 22.1326 58.5645 22.0829C59.8323 22.0332 60.8514 22.0083 61.6469 22.0083C62.144 22.0083 62.5417 22.1326 62.8898 22.3563C63.2378 22.58 63.4118 22.8535 63.4118 23.1518C63.4118 23.4749 63.2378 23.7483 62.8898 23.9721Z" fill="#10133E"/>
<path d="M91.65 21.9088C91.9235 21.9088 92.172 21.7845 92.3709 21.5608C92.5946 21.3371 92.6941 21.0886 92.6941 20.84V16.8628C92.6941 16.5645 92.5946 16.3159 92.3709 16.117C92.172 15.9182 91.9235 15.8187 91.65 15.8187H73.6531C73.3549 15.8187 73.1063 15.9182 72.9074 16.1419C72.7086 16.3656 72.6091 16.5893 72.6091 16.8628V35.1579C72.6091 35.4562 72.7086 35.7048 72.9323 35.9037C73.156 36.1025 73.3797 36.2019 73.6531 36.2019H91.65C91.9235 36.2019 92.172 36.1025 92.3709 35.8788C92.5946 35.6551 92.6941 35.4065 92.6941 35.1579V31.1807C92.6941 30.8824 92.5946 30.6339 92.3709 30.435C92.172 30.2361 91.9235 30.1367 91.65 30.1367H80.8867V28.4464H89.91C90.1834 28.4464 90.432 28.3221 90.6309 28.0984C90.8546 27.8747 90.954 27.6261 90.954 27.4024V24.668C90.954 24.3697 90.8546 24.1212 90.6309 23.9223C90.4072 23.7234 90.1834 23.624 89.91 23.624H80.8867V21.9337H91.65V21.9088Z" fill="#10133E"/>
<mask id="mask0_0_1" style="mask-type:alpha" maskUnits="userSpaceOnUse" x="10" y="0" width="55" height="50">
<rect x="23.8203" y="0.435425" width="43.8" height="35.0437" transform="rotate(23 23.8203 0.435425)" fill="#D9D9D9"/>
</mask>
<g mask="url(#mask0_0_1)">
<path fill-rule="evenodd" clip-rule="evenodd" d="M46.9559 16.1419C47.1547 16.3407 47.2542 16.5893 47.2542 16.8876V20.84L42.407 27.6509V35.1579C42.407 35.4562 42.3075 35.7048 42.1087 35.9037C41.9098 36.1025 41.6612 36.2019 41.3629 36.2019H35.1983C34.9 36.2019 34.6514 36.1025 34.4525 35.9037C34.2537 35.7048 34.1542 35.4562 34.1542 35.1579V27.6509L28.089 19.0999L29.5059 15.8187H34.1791C34.8751 15.8187 35.3723 16.1419 35.6457 16.7882L38.3055 23.2014L40.9652 16.7882C41.2386 16.1419 41.7109 15.8187 42.4318 15.8187H46.235C46.5085 15.8436 46.757 15.943 46.9559 16.1419ZM27.6169 20.2185L30.3 24L26.2746 35.2076C26.1752 35.4562 26.0012 35.6799 25.7277 35.9037C25.4543 36.1025 25.1809 36.2019 24.8826 36.2019H20.7314L27.6169 20.2185ZM49.3677 15.8436H49.3672C49.0689 15.8436 48.8203 15.943 48.6214 16.1667C48.4226 16.3656 48.3232 16.6142 48.3232 16.8876V25.5878L52.3501 15.8187C51.0827 15.8436 50.0637 15.8436 49.3677 15.8436Z" fill="#3AC0F0"/>
</g>
<path d="M43.1528 37.768V41.7204H33.508V45.5236L32.7623 46.319V54H30.3014V46.319L29.5557 45.5236V41.7204L20.0352 41.6955V37.7432L43.1528 37.768Z" fill="#3AC0F0"/>
<path d="M40.6921 0L41.3135 1.4293L42.457 2.2061L41.3135 3.014L40.6921 4.44331L40.0458 3.014L38.9023 2.2061L40.0458 1.4293L40.6921 0Z" fill="#3AC0F0"/>
<path d="M37.8085 7.02228L38.1814 7.92337L38.9022 8.38945L38.1814 8.8866L37.8085 9.78769L37.4108 8.8866L36.7148 8.38945L37.4108 7.92337L37.8085 7.02228Z" fill="#3AC0F0"/>
<path d="M36.7148 2.76544L36.9385 3.29365L37.3611 3.60437L36.9385 3.88403L36.7148 4.41227L36.4662 3.88403L36.0436 3.60437L36.4662 3.29365L36.7148 2.76544Z" fill="#3AC0F0"/>
</svg>
