<svg width="250" height="250" viewBox="0 0 250 250" fill="none" xmlns="http://www.w3.org/2000/svg">
<circle cx="125" cy="125" r="125" fill="white"/>
<path d="M86.2851 104.622L81.0029 97.2164C80.6404 96.7503 80.2779 96.5432 79.9154 96.6468C79.5528 96.7503 79.2939 97.061 79.1903 97.5789L74.5813 116.377L70.6973 97.5789C70.5937 97.0092 70.2312 96.4914 69.7134 96.0771C69.1437 95.6628 68.6258 95.4557 68.108 95.4557H57.8024C57.181 95.4557 56.6113 95.6628 56.1453 96.1289C55.6274 96.595 55.3167 97.061 55.2131 97.5789L51.3291 116.377L46.7201 97.5789C46.5647 97.0092 46.2022 96.4914 45.6326 96.0771C45.0629 95.6628 44.4933 95.4557 43.9754 95.4557H30.3037C29.8376 95.4557 29.4234 95.611 29.1644 95.87C28.9055 96.1807 28.7501 96.4914 28.7501 96.9057C28.7501 97.1129 28.8019 97.32 28.8537 97.5271L42.37 135.901C42.5772 136.471 42.9915 136.937 43.6129 137.351C44.2343 137.765 44.804 137.972 45.3218 137.972H55.8863C56.5078 137.972 57.0774 137.765 57.5953 137.299C58.1132 136.833 58.4239 136.367 58.5792 135.849L63.0329 117.517L67.4866 135.849C67.5901 136.419 67.9526 136.937 68.5223 137.351C69.0919 137.765 69.6616 137.972 70.1794 137.972H80.7439C81.3654 137.972 81.935 137.765 82.5047 137.351C83.0743 136.937 83.4368 136.471 83.644 135.901L91.9816 112.442L86.2851 104.622Z" fill="#10133E"/>
<path d="M126.575 96.1289C126.161 95.7146 125.643 95.5074 125.022 95.5074H117.098C115.648 95.5074 114.612 96.1807 114.043 97.5271L108.502 110.888L103.012 97.4753C102.443 96.1289 101.407 95.4557 99.9569 95.4557H84.628C84.3173 95.4557 84.0584 95.5593 83.8512 95.8182C83.6441 96.0253 83.5405 96.2843 83.5405 96.6468C83.5405 96.9057 83.5923 97.061 83.7477 97.2682L87.3209 102.343L99.9569 120.158V135.797C99.9569 136.419 100.164 136.937 100.578 137.351C100.993 137.765 101.51 137.972 102.132 137.972H114.975C115.596 137.972 116.114 137.765 116.529 137.351C116.943 136.937 117.15 136.419 117.15 135.797V120.158L127.248 105.968V97.7343C127.197 97.0611 126.99 96.5432 126.575 96.1289Z" fill="#10133E"/>
<path d="M171.94 99.6504C167.953 96.6468 162.878 95.0932 156.819 95.0932C153.401 95.0932 148.947 95.145 143.458 95.2486C141.335 95.3003 139.47 95.3522 137.813 95.3522C135.12 95.404 133.049 95.4039 131.599 95.4039C130.977 95.4039 130.459 95.6111 130.045 96.0772C129.631 96.5433 129.424 97.0093 129.424 97.579V135.694C129.424 136.264 129.631 136.781 130.097 137.196C130.563 137.662 131.081 137.869 131.599 137.869H144.442C145.011 137.869 145.529 137.662 145.944 137.196C146.41 136.73 146.617 136.212 146.617 135.694V125.44C149.258 125.751 152.624 125.855 156.819 125.855C162.878 125.855 167.901 124.353 171.94 121.401C175.928 118.449 177.948 114.824 177.948 110.577C177.948 106.383 175.928 102.706 171.94 99.6504ZM159.771 112.442C159.046 112.908 158.217 113.167 157.181 113.167C155.783 113.167 153.712 113.115 150.967 113.011C148.17 112.908 146.72 112.856 146.513 112.856V108.661C146.72 108.661 148.119 108.61 150.76 108.506C153.401 108.402 155.524 108.351 157.181 108.351C158.217 108.351 159.046 108.61 159.771 109.076C160.496 109.542 160.858 110.111 160.858 110.733C160.858 111.406 160.496 111.976 159.771 112.442Z" fill="#10133E"/>
<path d="M219.688 108.143C220.257 108.143 220.775 107.884 221.19 107.418C221.656 106.952 221.863 106.434 221.863 105.917V97.6307C221.863 97.0093 221.656 96.4914 221.19 96.0771C220.775 95.6628 220.257 95.4557 219.688 95.4557H182.194C181.573 95.4557 181.055 95.6628 180.641 96.1289C180.226 96.595 180.019 97.0611 180.019 97.6307V135.746C180.019 136.367 180.226 136.885 180.693 137.299C181.159 137.714 181.625 137.921 182.194 137.921H219.688C220.257 137.921 220.775 137.714 221.19 137.248C221.656 136.781 221.863 136.264 221.863 135.746V127.46C221.863 126.838 221.656 126.321 221.19 125.906C220.775 125.492 220.257 125.285 219.688 125.285H197.264V121.763H216.063C216.632 121.763 217.15 121.504 217.565 121.038C218.031 120.572 218.238 120.054 218.238 119.588V113.892C218.238 113.27 218.031 112.752 217.565 112.338C217.099 111.924 216.632 111.717 216.063 111.717H197.264V108.195H219.688V108.143Z" fill="#10133E"/>
<mask id="mask0_0_1" style="mask-type:alpha" maskUnits="userSpaceOnUse" x="49" y="63" width="114" height="104">
<rect x="78.3755" y="63.4071" width="91.25" height="73.5251" transform="rotate(23 78.3755 63.4071)" fill="#D9D9D9"/>
</mask>
<g mask="url(#mask0_0_1)">
<path fill-rule="evenodd" clip-rule="evenodd" d="M126.575 96.1289C126.989 96.5432 127.196 97.0611 127.196 97.6825V105.917L117.098 120.106V135.746C117.098 136.367 116.891 136.885 116.476 137.299C116.062 137.714 115.544 137.921 114.923 137.921H102.08C101.458 137.921 100.94 137.714 100.526 137.299C100.112 136.885 99.9048 136.367 99.9048 135.746V120.106L87.2688 102.292L90.2206 95.4557H99.9565C101.407 95.4557 102.442 96.1289 103.012 97.4753L108.553 110.836L114.094 97.4753C114.664 96.1289 115.648 95.4557 117.15 95.4557H125.073C125.643 95.5074 126.161 95.7146 126.575 96.1289ZM86.2853 104.622L91.8751 112.5L83.4888 135.849C83.2817 136.367 82.9192 136.833 82.3495 137.299C81.7799 137.714 81.2102 137.921 80.5888 137.921H71.9404L86.2853 104.622ZM131.599 95.5074H131.598C130.977 95.5074 130.459 95.7146 130.045 96.1807C129.63 96.595 129.423 97.1129 129.423 97.6825V115.808L137.813 95.4557C135.172 95.5074 133.049 95.5074 131.599 95.5074Z" fill="#3AC0F0"/>
</g>
</svg>
